<?xml version="1.0" encoding="UTF-8" standalone="no"?>
<svg
   class="svglite"
   width="1008.00pt"
   height="720.00pt"
   viewBox="0 0 1008.00 720.00"
   version="1.1"
   id="svg54160"
   sodipodi:docname="venta_armas_espana_tipo_1960_2021.svg"
   inkscape:version="1.1.1 (3bf5ae0d25, 2021-09-20)"
   xmlns:inkscape="http://www.inkscape.org/namespaces/inkscape"
   xmlns:sodipodi="http://sodipodi.sourceforge.net/DTD/sodipodi-0.dtd"
   xmlns="http://www.w3.org/2000/svg"
   xmlns:svg="http://www.w3.org/2000/svg">
  <sodipodi:namedview
     id="namedview54162"
     pagecolor="#ffffff"
     bordercolor="#111111"
     borderopacity="1"
     inkscape:pageshadow="0"
     inkscape:pageopacity="0"
     inkscape:pagecheckerboard="false"
     inkscape:document-units="pt"
     showgrid="false"
     inkscape:zoom="0.37916667"
     inkscape:cx="354.72527"
     inkscape:cy="255.82418"
     inkscape:window-width="1920"
     inkscape:window-height="974"
     inkscape:window-x="-11"
     inkscape:window-y="-11"
     inkscape:window-maximized="1"
     inkscape:current-layer="svg54160" />
  <defs
     id="defs54046">
    <style
       type="text/css"
       id="style54044"><![CDATA[
    .svglite line, .svglite polyline, .svglite polygon, .svglite path, .svglite rect, .svglite circle {
      fill: none;
      stroke: #000000;
      stroke-linecap: round;
      stroke-linejoin: round;
      stroke-miterlimit: 10.00;
    }
    .svglite text {
      white-space: pre;
    }
  ]]></style>
  </defs>
  <rect
     width="100%"
     height="100%"
     style="stroke: none; fill: none;"
     id="rect54048" />
  <defs
     id="defs54053">
    <clipPath
       id="cpMC4wMHwxMDA4LjAwfDAuMDB8NzIwLjAw">
      <rect
         x="0.00"
         y="0.00"
         width="1008.00"
         height="720.00"
         id="rect54050" />
    </clipPath>
  </defs>
  <g
     clip-path="url(#cpMC4wMHwxMDA4LjAwfDAuMDB8NzIwLjAw)"
     id="g54055" />
  <defs
     id="defs54060">
    <clipPath
       id="cpODcuNzd8MTAwMi4zM3wxNDcuNzJ8NjQwLjAy">
      <rect
         x="87.77"
         y="147.72"
         width="914.56"
         height="492.30"
         id="rect54057" />
    </clipPath>
  </defs>
  <polyline
     points="87.77,559.73 1002.33,559.73 "
     style="stroke:#ebebeb;stroke-width:0.53;stroke-linecap:butt"
     id="polyline54062" />
  <polyline
     points="87.77,443.91 1002.33,443.91 "
     style="stroke:#ebebeb;stroke-width:0.53;stroke-linecap:butt"
     id="polyline54064" />
  <polyline
     points="87.77,328.08 1002.33,328.08 "
     style="stroke:#ebebeb;stroke-width:0.53;stroke-linecap:butt"
     id="polyline54066" />
  <polyline
     points="87.77,212.26 1002.33,212.26 "
     style="stroke:#ebebeb;stroke-width:0.53;stroke-linecap:butt"
     id="polyline54068" />
  <polyline
     points="129.34,640.02 129.34,147.72 "
     style="stroke:#ebebeb;stroke-width:0.53;stroke-linecap:butt"
     id="polyline54070" />
  <polyline
     points="363.55,640.02 363.55,147.72 "
     style="stroke:#ebebeb;stroke-width:0.53;stroke-linecap:butt"
     id="polyline54072" />
  <polyline
     points="597.75,640.02 597.75,147.72 "
     style="stroke:#ebebeb;stroke-width:0.53;stroke-linecap:butt"
     id="polyline54074" />
  <polyline
     points="831.95,640.02 831.95,147.72 "
     style="stroke:#ebebeb;stroke-width:0.53;stroke-linecap:butt"
     id="polyline54076" />
  <polyline
     points="87.77,617.65 1002.33,617.65 "
     style="stroke:#ebebeb;stroke-width:1.07;stroke-linecap:butt"
     id="polyline54078" />
  <polyline
     points="87.77,501.82 1002.33,501.82 "
     style="stroke:#ebebeb;stroke-width:1.07;stroke-linecap:butt"
     id="polyline54080" />
  <polyline
     points="87.77,386.00 1002.33,386.00 "
     style="stroke:#ebebeb;stroke-width:1.07;stroke-linecap:butt"
     id="polyline54082" />
  <polyline
     points="87.77,270.17 1002.33,270.17 "
     style="stroke:#ebebeb;stroke-width:1.07;stroke-linecap:butt"
     id="polyline54084" />
  <polyline
     points="87.77,154.35 1002.33,154.35 "
     style="stroke:#ebebeb;stroke-width:1.07;stroke-linecap:butt"
     id="polyline54086" />
  <polyline
     points="246.45,640.02 246.45,147.72 "
     style="stroke:#ebebeb;stroke-width:1.07;stroke-linecap:butt"
     id="polyline54088" />
  <polyline
     points="480.65,640.02 480.65,147.72 "
     style="stroke:#ebebeb;stroke-width:1.07;stroke-linecap:butt"
     id="polyline54090" />
  <polyline
     points="714.85,640.02 714.85,147.72 "
     style="stroke:#ebebeb;stroke-width:1.07;stroke-linecap:butt"
     id="polyline54092" />
  <polyline
     points="949.05,640.02 949.05,147.72 "
     style="stroke:#ebebeb;stroke-width:1.07;stroke-linecap:butt"
     id="polyline54094" />
  <polygon
     points="152.77,617.65 164.48,617.65 176.19,617.65 187.9,617.65 199.61,617.65 211.32,617.65 223.03,617.65 234.74,617.65 246.45,617.18 258.16,615.33 269.87,614.87 281.58,614.87 293.29,614.4 305,607.92 316.71,607.92 328.42,614.4 340.13,614.4 351.84,614.87 363.55,585.22 375.26,552.78 386.97,617.65 398.68,617.65 410.39,579.19 422.1,495.34 433.81,596.33 445.52,606.06 457.23,600.04 468.94,609.31 480.65,613.01 492.36,557.88 504.07,501.82 515.78,454.56 527.49,507.38 539.2,578.27 550.91,532.4 562.62,546.76 574.33,551.86 586.04,537.5 597.75,564.37 609.46,569.46 621.17,585.68 632.88,569.93 644.59,502.75 656.3,577.34 668.01,565.76 679.72,324.84 691.43,537.96 703.14,596.33 714.85,595.87 726.56,613.94 738.27,609.31 749.98,573.17 761.69,593.55 773.4,567.15 785.11,214.11 796.82,345.23 808.53,340.13 820.24,177.98 831.95,496.26 843.66,182.61 855.37,501.36 867.08,414.26 878.79,176.12 890.5,170.1 902.21,398.97 913.92,239.13 925.63,291.48 937.34,478.19 949.05,181.68 960.76,334.11 960.76,496.73 949.05,359.13 937.34,609.31 925.63,379.05 913.92,368.39 902.21,578.73 890.5,367.93 878.79,391.56 867.08,616.26 855.37,577.8 843.66,331.79 831.95,595.87 820.24,264.15 808.53,408.24 796.82,411.01 785.11,267.39 773.4,617.65 761.69,617.65 749.98,617.65 738.27,617.65 726.56,617.65 714.85,613.94 703.14,612.55 691.43,602.82 679.72,420.28 668.01,612.09 656.3,617.65 644.59,600.97 632.88,609.77 621.17,617.65 609.46,617.65 597.75,617.65 586.04,585.22 574.33,601.43 562.62,613.48 550.91,601.43 539.2,597.72 527.49,518.04 515.78,481.44 504.07,527.3 492.36,562.98 480.65,616.72 468.94,609.31 457.23,617.65 445.52,614.87 433.81,617.65 422.1,520.35 410.39,585.22 398.68,617.65 386.97,617.65 375.26,552.78 363.55,585.22 351.84,617.65 340.13,617.65 328.42,617.65 316.71,611.16 305,611.16 293.29,617.65 281.58,617.65 269.87,617.65 258.16,617.65 246.45,617.65 234.74,617.65 223.03,617.65 211.32,617.65 199.61,617.65 187.9,617.65 176.19,617.65 164.48,617.65 152.77,617.65 141.05,617.65 129.34,617.65 141.05,617.65 "
     style="fill:#0c2d41;stroke:none;stroke-width:0"
     id="polygon54096" />
  <polyline
     points="129.34,617.65 141.05,617.65 152.77,617.65 164.48,617.65 176.19,617.65 187.90,617.65 199.61,617.65 211.32,617.65 223.03,617.65 234.74,617.65 246.45,617.18 258.16,615.33 269.87,614.87 281.58,614.87 293.29,614.40 305.00,607.92 316.71,607.92 328.42,614.40 340.13,614.40 351.84,614.87 363.55,585.22 375.26,552.78 386.97,617.65 398.68,617.65 410.39,579.19 422.10,495.34 433.81,596.33 445.52,606.06 457.23,600.04 468.94,609.31 480.65,613.01 492.36,557.88 504.07,501.82 515.78,454.56 527.49,507.38 539.20,578.27 550.91,532.40 562.62,546.76 574.33,551.86 586.04,537.50 597.75,564.37 609.46,569.46 621.17,585.68 632.88,569.93 644.59,502.75 656.30,577.34 668.01,565.76 679.72,324.84 691.43,537.96 703.14,596.33 714.85,595.87 726.56,613.94 738.27,609.31 749.98,573.17 761.69,593.55 773.40,567.15 785.11,214.11 796.82,345.23 808.53,340.13 820.24,177.98 831.95,496.26 843.66,182.61 855.37,501.36 867.08,414.26 878.79,176.12 890.50,170.10 902.21,398.97 913.92,239.13 925.63,291.48 937.34,478.19 949.05,181.68 960.76,334.11 "
     style="stroke:none;stroke-width:1.07"
     id="polyline54098" />
  <polygon
     points="152.77,617.65 164.48,617.65 176.19,617.65 187.9,617.65 199.61,617.65 211.32,617.65 223.03,617.65 234.74,617.65 246.45,617.65 258.16,617.65 269.87,617.65 281.58,617.65 293.29,617.65 305,611.16 316.71,611.16 328.42,617.65 340.13,617.65 351.84,617.65 363.55,585.22 375.26,552.78 386.97,617.65 398.68,617.65 410.39,585.22 422.1,520.35 433.81,617.65 445.52,614.87 457.23,617.65 468.94,609.31 480.65,616.72 492.36,562.98 504.07,527.3 515.78,481.44 527.49,518.04 539.2,597.72 550.91,601.43 562.62,613.48 574.33,601.43 586.04,585.22 597.75,617.65 609.46,617.65 621.17,617.65 632.88,609.77 644.59,600.97 656.3,617.65 668.01,612.09 679.72,420.28 691.43,602.82 703.14,612.55 714.85,613.94 726.56,617.65 738.27,617.65 749.98,617.65 761.69,617.65 773.4,617.65 785.11,267.39 796.82,411.01 808.53,408.24 820.24,264.15 831.95,595.87 843.66,331.79 855.37,577.8 867.08,616.26 878.79,391.56 890.5,367.93 902.21,578.73 913.92,368.39 925.63,379.05 937.34,609.31 949.05,359.13 960.76,496.73 960.76,497.65 949.05,369.32 937.34,611.62 925.63,380.44 913.92,368.39 902.21,593.55 890.5,368.39 878.79,391.56 867.08,616.26 855.37,577.8 843.66,332.25 831.95,595.87 820.24,264.15 808.53,410.55 796.82,411.01 785.11,267.39 773.4,617.65 761.69,617.65 749.98,617.65 738.27,617.65 726.56,617.65 714.85,613.94 703.14,612.55 691.43,602.82 679.72,420.28 668.01,612.09 656.3,617.65 644.59,600.97 632.88,609.77 621.17,617.65 609.46,617.65 597.75,617.65 586.04,585.22 574.33,601.43 562.62,617.65 550.91,617.65 539.2,617.65 527.49,529.62 515.78,481.44 504.07,527.3 492.36,562.98 480.65,617.65 468.94,609.31 457.23,617.65 445.52,614.87 433.81,617.65 422.1,520.35 410.39,585.22 398.68,617.65 386.97,617.65 375.26,552.78 363.55,585.22 351.84,617.65 340.13,617.65 328.42,617.65 316.71,611.16 305,611.16 293.29,617.65 281.58,617.65 269.87,617.65 258.16,617.65 246.45,617.65 234.74,617.65 223.03,617.65 211.32,617.65 199.61,617.65 187.9,617.65 176.19,617.65 164.48,617.65 152.77,617.65 141.05,617.65 129.34,617.65 141.05,617.65 "
     style="fill:#4e8bb9;stroke:none;stroke-width:0;fill-opacity:1"
     id="polygon54100" />
  <polyline
     points="129.34,617.65 141.05,617.65 152.77,617.65 164.48,617.65 176.19,617.65 187.90,617.65 199.61,617.65 211.32,617.65 223.03,617.65 234.74,617.65 246.45,617.65 258.16,617.65 269.87,617.65 281.58,617.65 293.29,617.65 305.00,611.16 316.71,611.16 328.42,617.65 340.13,617.65 351.84,617.65 363.55,585.22 375.26,552.78 386.97,617.65 398.68,617.65 410.39,585.22 422.10,520.35 433.81,617.65 445.52,614.87 457.23,617.65 468.94,609.31 480.65,616.72 492.36,562.98 504.07,527.30 515.78,481.44 527.49,518.04 539.20,597.72 550.91,601.43 562.62,613.48 574.33,601.43 586.04,585.22 597.75,617.65 609.46,617.65 621.17,617.65 632.88,609.77 644.59,600.97 656.30,617.65 668.01,612.09 679.72,420.28 691.43,602.82 703.14,612.55 714.85,613.94 726.56,617.65 738.27,617.65 749.98,617.65 761.69,617.65 773.40,617.65 785.11,267.39 796.82,411.01 808.53,408.24 820.24,264.15 831.95,595.87 843.66,331.79 855.37,577.80 867.08,616.26 878.79,391.56 890.50,367.93 902.21,578.73 913.92,368.39 925.63,379.05 937.34,609.31 949.05,359.13 960.76,496.73 "
     style="stroke:none;stroke-width:1.07"
     id="polyline54102" />
  <polygon
     points="152.77,617.65 164.48,617.65 176.19,617.65 187.9,617.65 199.61,617.65 211.32,617.65 223.03,617.65 234.74,617.65 246.45,617.65 258.16,617.65 269.87,617.65 281.58,617.65 293.29,617.65 305,611.16 316.71,611.16 328.42,617.65 340.13,617.65 351.84,617.65 363.55,585.22 375.26,552.78 386.97,617.65 398.68,617.65 410.39,585.22 422.1,520.35 433.81,617.65 445.52,614.87 457.23,617.65 468.94,609.31 480.65,617.65 492.36,562.98 504.07,527.3 515.78,481.44 527.49,529.62 539.2,617.65 550.91,617.65 562.62,617.65 574.33,601.43 586.04,585.22 597.75,617.65 609.46,617.65 621.17,617.65 632.88,609.77 644.59,600.97 656.3,617.65 668.01,612.09 679.72,420.28 691.43,602.82 703.14,612.55 714.85,613.94 726.56,617.65 738.27,617.65 749.98,617.65 761.69,617.65 773.4,617.65 785.11,267.39 796.82,411.01 808.53,410.55 820.24,264.15 831.95,595.87 843.66,332.25 855.37,577.8 867.08,616.26 878.79,391.56 890.5,368.39 902.21,593.55 913.92,368.39 925.63,380.44 937.34,611.62 949.05,369.32 960.76,497.65 960.76,503.67 949.05,375.34 937.34,617.65 925.63,386.46 913.92,386.46 902.21,617.65 890.5,395.73 878.79,391.56 867.08,616.26 855.37,577.8 843.66,332.25 831.95,606.53 820.24,270.64 808.53,419.82 796.82,413.33 785.11,267.39 773.4,617.65 761.69,617.65 749.98,617.65 738.27,617.65 726.56,617.65 714.85,613.94 703.14,612.55 691.43,602.82 679.72,420.28 668.01,612.09 656.3,617.65 644.59,600.97 632.88,609.77 621.17,617.65 609.46,617.65 597.75,617.65 586.04,585.22 574.33,601.43 562.62,617.65 550.91,617.65 539.2,617.65 527.49,529.62 515.78,481.44 504.07,527.3 492.36,562.98 480.65,617.65 468.94,609.31 457.23,617.65 445.52,614.87 433.81,617.65 422.1,520.35 410.39,585.22 398.68,617.65 386.97,617.65 375.26,552.78 363.55,585.22 351.84,617.65 340.13,617.65 328.42,617.65 316.71,611.16 305,611.16 293.29,617.65 281.58,617.65 269.87,617.65 258.16,617.65 246.45,617.65 234.74,617.65 223.03,617.65 211.32,617.65 199.61,617.65 187.9,617.65 176.19,617.65 164.48,617.65 152.77,617.65 141.05,617.65 129.34,617.65 141.05,617.65 "
     style="fill:#bfbdb2;stroke:none;stroke-width:0;fill-opacity:1"
     id="polygon54104" />
  <polyline
     points="129.34,617.65 141.05,617.65 152.77,617.65 164.48,617.65 176.19,617.65 187.90,617.65 199.61,617.65 211.32,617.65 223.03,617.65 234.74,617.65 246.45,617.65 258.16,617.65 269.87,617.65 281.58,617.65 293.29,617.65 305.00,611.16 316.71,611.16 328.42,617.65 340.13,617.65 351.84,617.65 363.55,585.22 375.26,552.78 386.97,617.65 398.68,617.65 410.39,585.22 422.10,520.35 433.81,617.65 445.52,614.87 457.23,617.65 468.94,609.31 480.65,617.65 492.36,562.98 504.07,527.30 515.78,481.44 527.49,529.62 539.20,617.65 550.91,617.65 562.62,617.65 574.33,601.43 586.04,585.22 597.75,617.65 609.46,617.65 621.17,617.65 632.88,609.77 644.59,600.97 656.30,617.65 668.01,612.09 679.72,420.28 691.43,602.82 703.14,612.55 714.85,613.94 726.56,617.65 738.27,617.65 749.98,617.65 761.69,617.65 773.40,617.65 785.11,267.39 796.82,411.01 808.53,410.55 820.24,264.15 831.95,595.87 843.66,332.25 855.37,577.80 867.08,616.26 878.79,391.56 890.50,368.39 902.21,593.55 913.92,368.39 925.63,380.44 937.34,611.62 949.05,369.32 960.76,497.65 "
     style="stroke:none;stroke-width:1.07"
     id="polyline54106" />
  <polygon
     points="152.77,617.65 164.48,617.65 176.19,617.65 187.9,617.65 199.61,617.65 211.32,617.65 223.03,617.65 234.74,617.65 246.45,617.65 258.16,617.65 269.87,617.65 281.58,617.65 293.29,617.65 305,611.16 316.71,611.16 328.42,617.65 340.13,617.65 351.84,617.65 363.55,585.22 375.26,552.78 386.97,617.65 398.68,617.65 410.39,585.22 422.1,520.35 433.81,617.65 445.52,614.87 457.23,617.65 468.94,609.31 480.65,617.65 492.36,562.98 504.07,527.3 515.78,481.44 527.49,529.62 539.2,617.65 550.91,617.65 562.62,617.65 574.33,601.43 586.04,585.22 597.75,617.65 609.46,617.65 621.17,617.65 632.88,609.77 644.59,600.97 656.3,617.65 668.01,612.09 679.72,420.28 691.43,602.82 703.14,612.55 714.85,613.94 726.56,617.65 738.27,617.65 749.98,617.65 761.69,617.65 773.4,617.65 785.11,267.39 796.82,413.33 808.53,419.82 820.24,270.64 831.95,606.53 843.66,332.25 855.37,577.8 867.08,616.26 878.79,391.56 890.5,395.73 902.21,617.65 913.92,386.46 925.63,386.46 937.34,617.65 949.05,375.34 960.76,503.67 960.76,617.65 949.05,617.65 937.34,617.65 925.63,617.65 913.92,617.65 902.21,617.65 890.5,617.65 878.79,617.65 867.08,617.65 855.37,617.65 843.66,617.65 831.95,617.65 820.24,617.65 808.53,617.65 796.82,617.65 785.11,617.65 773.4,617.65 761.69,617.65 749.98,617.65 738.27,617.65 726.56,617.65 714.85,617.65 703.14,617.65 691.43,617.65 679.72,617.65 668.01,617.65 656.3,617.65 644.59,617.65 632.88,617.65 621.17,617.65 609.46,617.65 597.75,617.65 586.04,617.65 574.33,617.65 562.62,617.65 550.91,617.65 539.2,617.65 527.49,617.65 515.78,617.65 504.07,617.65 492.36,617.65 480.65,617.65 468.94,617.65 457.23,617.65 445.52,617.65 433.81,617.65 422.1,617.65 410.39,617.65 398.68,617.65 386.97,617.65 375.26,617.65 363.55,617.65 351.84,617.65 340.13,617.65 328.42,617.65 316.71,617.65 305,617.65 293.29,617.65 281.58,617.65 269.87,617.65 258.16,617.65 246.45,617.65 234.74,617.65 223.03,617.65 211.32,617.65 199.61,617.65 187.9,617.65 176.19,617.65 164.48,617.65 152.77,617.65 141.05,617.65 129.34,617.65 141.05,617.65 "
     style="fill:#f03351;stroke:none;stroke-width:0;fill-opacity:1"
     id="polygon54108" />
  <polyline
     points="129.34,617.65 141.05,617.65 152.77,617.65 164.48,617.65 176.19,617.65 187.90,617.65 199.61,617.65 211.32,617.65 223.03,617.65 234.74,617.65 246.45,617.65 258.16,617.65 269.87,617.65 281.58,617.65 293.29,617.65 305.00,611.16 316.71,611.16 328.42,617.65 340.13,617.65 351.84,617.65 363.55,585.22 375.26,552.78 386.97,617.65 398.68,617.65 410.39,585.22 422.10,520.35 433.81,617.65 445.52,614.87 457.23,617.65 468.94,609.31 480.65,617.65 492.36,562.98 504.07,527.30 515.78,481.44 527.49,529.62 539.20,617.65 550.91,617.65 562.62,617.65 574.33,601.43 586.04,585.22 597.75,617.65 609.46,617.65 621.17,617.65 632.88,609.77 644.59,600.97 656.30,617.65 668.01,612.09 679.72,420.28 691.43,602.82 703.14,612.55 714.85,613.94 726.56,617.65 738.27,617.65 749.98,617.65 761.69,617.65 773.40,617.65 785.11,267.39 796.82,413.33 808.53,419.82 820.24,270.64 831.95,606.53 843.66,332.25 855.37,577.80 867.08,616.26 878.79,391.56 890.50,395.73 902.21,617.65 913.92,386.46 925.63,386.46 937.34,617.65 949.05,375.34 960.76,503.67 "
     style="stroke:none;stroke-width:1.07"
     id="polyline54110" />
  <text
     x="82.839996"
     y="625.52002"
     text-anchor="end"
     style="font-size:22px;font-family:Arial;fill:#4d4d4d"
     textLength="12.24"
     lengthAdjust="spacingAndGlyphs"
     id="text54114">0</text>
  <text
     x="82.839996"
     y="509.70001"
     text-anchor="end"
     style="font-size:22px;font-family:Arial;fill:#4d4d4d"
     textLength="36.720001"
     lengthAdjust="spacingAndGlyphs"
     id="text54116">250</text>
  <text
     x="82.839996"
     y="393.87"
     text-anchor="end"
     style="font-size:22px;font-family:Arial;fill:#4d4d4d"
     textLength="36.720001"
     lengthAdjust="spacingAndGlyphs"
     id="text54118">500</text>
  <text
     x="82.839996"
     y="278.04999"
     text-anchor="end"
     style="font-size:22px;font-family:Arial;fill:#4d4d4d"
     textLength="36.720001"
     lengthAdjust="spacingAndGlyphs"
     id="text54120">750</text>
  <text
     x="82.839996"
     y="162.22"
     text-anchor="end"
     style="font-size:22px;font-family:Arial;fill:#4d4d4d"
     textLength="48.959999"
     lengthAdjust="spacingAndGlyphs"
     id="text54122">1000</text>
  <text
     x="246.45"
     y="660.71002"
     text-anchor="middle"
     style="font-size:22px;font-family:Arial;fill:#4d4d4d"
     textLength="48.959999"
     lengthAdjust="spacingAndGlyphs"
     id="text54124">1960</text>
  <text
     x="480.64999"
     y="660.71002"
     text-anchor="middle"
     style="font-size:22px;font-family:Arial;fill:#4d4d4d"
     textLength="48.959999"
     lengthAdjust="spacingAndGlyphs"
     id="text54126">1980</text>
  <text
     x="714.84998"
     y="660.71002"
     text-anchor="middle"
     style="font-size:22px;font-family:Arial;fill:#4d4d4d"
     textLength="48.959999"
     lengthAdjust="spacingAndGlyphs"
     id="text54128">2000</text>
  <text
     x="949.04999"
     y="660.71002"
     text-anchor="middle"
     style="font-size:22px;font-family:Arial;fill:#4d4d4d"
     textLength="48.959999"
     lengthAdjust="spacingAndGlyphs"
     id="text54130">2020</text>
  <text
     x="545.04999"
     y="687.77002"
     text-anchor="middle"
     style="font-weight:bold;font-size:27.5px;font-family:Arial"
     textLength="53.450001"
     lengthAdjust="spacingAndGlyphs"
     id="text54132">Año</text>
  <text
     transform="rotate(-90,209.61,184.26)"
     text-anchor="middle"
     style="font-weight:bold;font-size:27.5px;font-family:Arial"
     textLength="172.66"
     lengthAdjust="spacingAndGlyphs"
     id="text54134">Millones de €</text>
  <g
     id="g69679"
     transform="translate(0,-1.9059685)">
    <rect
       x="320.54971"
       y="107.73132"
       width="26.93"
       height="26.93"
       style="fill:#0c2d41;stroke:none;stroke-width:1.07;stroke-linecap:square;stroke-linejoin:miter"
       id="rect54136" />
    <text
       x="416.60999"
       y="126.17"
       style="font-size:10px;font-family:Arial"
       textLength="31.690001"
       lengthAdjust="spacingAndGlyphs"
       id="text54144"
       transform="matrix(1.3224899,0,0,1,-197.28966,-1.453167)"><tspan
         style="font-weight:bold"
         id="tspan66649">Aeronaves</tspan></text>
  </g>
  <g
     id="g69668"
     transform="translate(236.86819,-129.18519)">
    <rect
       x="320.90677"
       y="235.01054"
       width="26.93"
       height="26.93"
       style="fill:#4e8bb9;fill-opacity:1;stroke:none;stroke-width:1.07;stroke-linecap:square;stroke-linejoin:miter"
       id="rect54138" />
    <text
       x="487.60001"
       y="126.17"
       style="font-size:9.89564px;font-family:Arial"
       textLength="82.860001"
       lengthAdjust="spacingAndGlyphs"
       id="text54146"
       transform="matrix(1.0212024,0,0,1,-143.91239,125.84971)"><tspan
         sodipodi:role="line"
         id="tspan61393"
         x="487.60001"
         y="126.17"
         style="font-weight:bold;font-size:9.89564px">Vehículos blindados</tspan></text>
  </g>
  <g
     id="g54386"
     transform="translate(-101.14517,-3.3046426)">
    <rect
       x="576.65002"
       y="109.13"
       width="26.93"
       height="26.93"
       style="fill:#bfbdb2;fill-opacity:1;stroke:none;stroke-width:1.07;stroke-linecap:square;stroke-linejoin:miter"
       id="rect54140" />
    <text
       x="609.77002"
       y="126.17"
       style="font-size:9.50491px;font-family:Arial"
       textLength="36.709999"
       lengthAdjust="spacingAndGlyphs"
       id="text54148"
       transform="matrix(1.1068892,0,0,1,-65.219562,0)"><tspan
         sodipodi:role="line"
         id="tspan59699"
         x="609.77002"
         y="126.17"
         style="font-weight:bold;font-size:9.50491px">Sensores</tspan></text>
  </g>
  <g
     id="g69674"
     transform="translate(83.487644,-58.196999)">
    <g
       id="g54389"
       transform="translate(-331.96706,54.892356)">
      <rect
         x="652.65997"
         y="109.13"
         width="26.93"
         height="26.93"
         style="fill:#f03351;fill-opacity:1;stroke:none;stroke-width:1.07;stroke-linecap:square;stroke-linejoin:miter"
         id="rect54142" />
    </g>
    <text
       x="685.78003"
       y="126.17"
       style="font-size:9.26497px;font-family:Arial"
       textLength="25.030001"
       lengthAdjust="spacingAndGlyphs"
       id="text54150"
       transform="matrix(1.1883774,0,0,1,-461.26348,54.579095)"><tspan
         style="font-weight:bold;font-size:9.26497px"
         id="tspan65141">Barcos</tspan></text>
  </g>
  <text
     x="87.769997"
     y="74.809998"
     style="font-size:25px;font-family:Arial"
     textLength="701.76001"
     lengthAdjust="spacingAndGlyphs"
     id="text54152">Evolución anual de las ventas de los principales tipos de armas</text>
  <text
     x="87.769997"
     y="34.310001"
     style="font-weight:bold;font-size:40px;font-family:Arial"
     textLength="667.12"
     lengthAdjust="spacingAndGlyphs"
     id="text54154">España cada vez vende más armas</text>
  <text
     x="1002.33"
     y="710.84998"
     text-anchor="end"
     style="font-size:16.5px;font-family:Arial"
     textLength="254.73"
     lengthAdjust="spacingAndGlyphs"
     id="text54156">Autor: Darío Ojeda | Fuente: SIPRI</text>
</svg>
